<svg xmlns="http://www.w3.org/2000/svg" viewBox="0 0 732.67 227.21"><defs><style>.cls-1{fill:#e5004f}.cls-2{fill:#0a1561}</style></defs><title>アセット 2</title><g id="レイヤー_2" data-name="レイヤー 2"><g id="レイヤー_1-2" data-name="レイヤー 1"><path d="M547.84,69.15a10.37,10.37,0,1,1-10.36-10.38A10.36,10.36,0,0,1,547.84,69.15Z" class="cls-1"/><path d="M732.67,13.74A13.74,13.74,0,1,1,718.93,0,13.74,13.74,0,0,1,732.67,13.74Z" class="cls-1"/><polygon points="717.96 .03 719.88 27.5 178.53 73.6 717.96 .03" class="cls-1"/><polygon points="537.1 58.77 537.84 79.51 0 102.85 537.1 58.77" class="cls-1"/><path d="M555.49,180.78l-5.6,10H525.31V200h19.38l-5.64,10.05H525.31v17.16h-10V180.78Z" class="cls-2"/><path d="M217.32,180.78l-5.62,10H187.1V200h19.42l-5.65,10.05H187.1v17.16h-9.93V180.78Z" class="cls-2"/><path d="M549.89,227.21l5.6-10.07H515.35v10.07Z" class="cls-2"/><path d="M351.45,180.78l-5.65,10H332.45v36.41h-9.91V190.8H307.43v-10Z" class="cls-2"/><path d="M279.93,207.08v-26.3h-10v26.3h0a10.05,10.05,0,0,1-20.1,0h0v-26.3H239.78v26.3h0a20.08,20.08,0,1,0,40.15,0Z" class="cls-2"/><path d="M415.22,207.08v-26.3H405.17v26.3h0a10,10,0,0,1-20.08,0h0v-26.3h-10v26.3h0a20.06,20.06,0,1,0,40.12,0Z" class="cls-2"/><rect width="10.05" height="46.43" x="445.36" y="180.78" class="cls-2"/><polygon points="490.41 227.22 477.84 227.22 457.24 206.56 469.81 206.56 490.41 227.22" class="cls-2"/><path d="M482.82,196.57a15.76,15.76,0,0,0-15.72-15.79H445.36v10H467.1a5.75,5.75,0,0,1,0,11.5H445.36v10H467.1A15.76,15.76,0,0,0,482.82,196.57Z" class="cls-2"/></g></g></svg>